<?xml version="1.0" encoding="iso-8859-1"?>
<!-- Generator: Adobe Illustrator 19.0.0, SVG Export Plug-In . SVG Version: 6.00 Build 0)  -->
<svg version="1.1" id="Capa_1" xmlns="http://www.w3.org/2000/svg" xmlns:xlink="http://www.w3.org/1999/xlink" x="0px" y="0px"
	 viewBox="0 0 512.002 512.002" style="enable-background:new 0 0 512.002 512.002;" xml:space="preserve">
<g>
	<g>
		<path d="M376.622,154.081h-0.001c-28.393-4.583-56.763,2.621-79.874,20.28c-23.989,18.331-57.502,18.331-81.493,0
			c-18.567-14.188-40.528-21.627-63.171-21.627c-5.54,0-11.121,0.445-16.703,1.346c-58.164,9.383-98.03,65.865-88.867,125.908
			c16.668,109.222,48.258,183.553,91.357,214.959c20.154,14.684,42.426,19.806,68.095,15.668
			c15.731-2.538,28.157-8.946,37.991-19.592c3.104-3.359,7.47-5.271,12.044-5.271c4.574,0,8.941,1.911,12.044,5.271
			c9.833,10.646,22.26,17.054,37.991,19.592c25.669,4.144,47.943-0.983,68.095-15.668c43.1-31.406,74.689-105.737,91.357-214.959
			C474.65,219.946,434.785,163.464,376.622,154.081z"/>
	</g>
</g>
<g>
	<g>
		<path d="M377.045,49.397c-3.265-8.445-12.756-12.648-21.207-9.381c-2.584,0.999-43.204,17.15-75.284,54.855
			c-1.202-5.935-2.881-11.91-5.154-17.832c-19.089-49.727-71.527-74.49-73.75-75.521c-4.023-1.864-8.63-2.017-12.769-0.43
			c-4.139,1.589-7.458,4.786-9.201,8.864c-0.963,2.254-23.362,55.745-4.274,105.472c1.724,4.489,3.738,8.755,5.943,12.838
			c19.234,4.258,37.528,12.739,53.817,25.185c12.266,9.375,29.404,9.375,41.672,0c2.885-2.204,5.833-4.283,8.838-6.237
			c8.529-18.735,21.859-35.685,39.906-50.623c21.507-17.803,41.916-25.918,42.082-25.983
			C376.11,67.338,380.311,57.844,377.045,49.397z"/>
	</g>
</g>
<g>
</g>
<g>
</g>
<g>
</g>
<g>
</g>
<g>
</g>
<g>
</g>
<g>
</g>
<g>
</g>
<g>
</g>
<g>
</g>
<g>
</g>
<g>
</g>
<g>
</g>
<g>
</g>
<g>
</g>
</svg>
